<svg xmlns="http://www.w3.org/2000/svg" xmlns:xlink="http://www.w3.org/1999/xlink" width="1024" height="326" viewBox="0 0 1024 326">
  <defs>
    <clipPath id="clip-_1024_Horizontal_black">
      <rect width="1024" height="326"/>
    </clipPath>
  </defs>
  <g id="_1024_Horizontal_black" data-name="1024_Horizontal_black" clip-path="url(#clip-_1024_Horizontal_black)">
    <g id="Group_19119" data-name="Group 19119" transform="translate(72.517 65.074)">
      <g id="Group_19087" data-name="Group 19087" transform="translate(223.415 16.575)">
        <path id="Path_12978" data-name="Path 12978" d="M88.426,402.563a62.884,62.884,0,0,0-8.351-.643q-13.168,0-17.262,8.912l-.225,58.25h-23.2l.225-88.278h21.92l.642,10.356Q69.157,379.2,81.521,379.2a24.325,24.325,0,0,1,7.227,1.043Z" transform="translate(24.61 -339.144)"/>
        <path id="Path_12979" data-name="Path 12979" d="M135.233,469.287q-19.11,0-31.114-11.724t-12-31.233v-2.249a52.484,52.484,0,0,1,5.058-23.406,37.147,37.147,0,0,1,14.332-15.9,40.232,40.232,0,0,1,21.157-5.579q17.825,0,28.062,11.24t10.238,31.876v9.477H115.641a21.545,21.545,0,0,0,6.784,13.647q5.662,5.143,14.333,5.14,13.407,0,20.956-9.715l11.4,12.767a34.832,34.832,0,0,1-14.131,11.521A46.375,46.375,0,0,1,135.233,469.287Zm-2.65-71.382a14.5,14.5,0,0,0-11.2,4.679q-4.3,4.678-5.5,13.388H148.16v-1.856q-.162-7.741-4.175-11.976T132.583,397.9Z" transform="translate(28.736 -339.144)"/>
        <path id="Path_12980" data-name="Path 12980" d="M180.966,357.116a11.528,11.528,0,0,1,3.524-8.667q3.523-3.4,9.6-3.4,5.992,0,9.557,3.4a12.369,12.369,0,0,1-.04,17.414,15.015,15.015,0,0,1-19.034,0A11.493,11.493,0,0,1,180.966,357.116Zm24.863,111.728H182.341l0-89.845h23.488Z" transform="translate(24.547 -338.907)"/>
        <path id="Path_12981" data-name="Path 12981" d="M216.3,423.986q0-20.167,9.6-32.478T251.77,379.2q14.415,0,22.434,9.88l.972-8.26H296.4v84.718a37.441,37.441,0,0,1-5.226,20,33.535,33.535,0,0,1-14.7,12.959q-9.475,4.454-22.191,4.455a48.1,48.1,0,0,1-18.791-3.846q-9.153-3.849-13.848-9.922l10.366-14.255q8.747,9.8,21.22,9.8,9.314,0,14.5-4.981t5.183-14.132v-4.7q-8.1,9.154-21.3,9.154a31.016,31.016,0,0,1-25.553-12.352q-9.761-12.349-9.76-32.761Zm23.407,1.743q0,11.925,4.78,18.7A15.2,15.2,0,0,0,257.6,451.2q10.691,0,15.307-8.031V406.261q-4.7-8.029-15.145-8.03a15.3,15.3,0,0,0-13.243,6.894Q239.7,412.022,239.7,425.729Z" transform="translate(21.272 -339.144)"/>
        <path id="Path_12982" data-name="Path 12982" d="M333.564,388.3q9.312-11.176,23.406-11.177,28.509,0,28.914,33.126V467.8H362.478V410.9q0-7.532-3.24-11.136t-10.772-3.6q-10.287,0-14.9,7.935v63.7H310.156V338.14h23.408Z" transform="translate(15.01 -337.858)"/>
        <path id="Path_12983" data-name="Path 12983" d="M427.53,358.658v20.706h14.983v18.008H427.53v43.736q0,4.86,1.862,6.966t7.128,2.106a37.369,37.369,0,0,0,6.885-.567V467.35a48.185,48.185,0,0,1-14.174,2.106q-24.622,0-25.107-24.865V397.373h-12.8V379.364h12.8V358.658Z" transform="translate(17.065 -339.311)"/>
        <path id="Path_12984" data-name="Path 12984" d="M450.7,357.116a11.527,11.527,0,0,1,3.522-8.667q3.524-3.4,9.6-3.4,5.994,0,9.558,3.4a12.369,12.369,0,0,1-.041,17.414,15.015,15.015,0,0,1-19.033,0A11.486,11.486,0,0,1,450.7,357.116Zm24.864,111.728H452.078l.1-89.884h23.488Z" transform="translate(15.673 -338.907)"/>
        <path id="Path_12986" data-name="Path 12986" d="M576.613,435.161l16.23-55.344h25.11L582.688,481.894l-1.943,4.617q-7.856,17.17-25.919,17.171a36.822,36.822,0,0,1-10.366-1.54V484.4l3.562.082q6.641,0,9.924-2.026c2.187-1.349,3.662-3.685,5.142-6.721l2.693-6.037-30.6-89.884h25.189Z" transform="translate(27.767 -339.764)"/>
        <path id="Path_12977" data-name="Path 12977" d="M267.641,353.928V281.212H252.977v-17.5h14.663v-7.671c0-10.116,3.472-17.281,9.281-22.868s13.368-9.065,23.82-9.065c3.335,0,7.417.12,12.007,0V243.7c-2.274.135-4.448,0-7.337,0-9.061,0-13.955,4.252-13.955,12.756v7.254h18.211v17.5H291.455v72.716Z" transform="translate(-252.977 -224.111)"/>
        <path id="Path_21460" data-name="Path 21460" d="M267.641,353.928V281.212H252.977v-17.5h14.663v-7.671c0-10.116,3.472-17.281,9.281-22.868s13.368-9.065,23.82-9.065c3.335,0,7.417.12,12.007,0V243.7c-2.274.135-4.448,0-7.337,0-9.061,0-13.955,4.252-13.955,12.756v7.254h18.211v17.5H291.455v72.716Z" transform="translate(245.543 -223.316)"/>
      </g>
      <g id="Group_19088" data-name="Group 19088" transform="matrix(0.995, 0.096, -0.096, 0.995, 13.469, 0)">
        <path id="Path_9104" data-name="Path 9104" d="M0,0,70.764,82.515l47.354-71.884Z" transform="translate(0 54.109)"/>
        <path id="Path_9105" data-name="Path 9105" d="M8.65.779,0,0,6.949,40.659Z" transform="translate(186.789 73.43)"/>
        <path id="Path_9106" data-name="Path 9106" d="M114.735,129.651,5.665,140.007,0,140.531l47.7-72.4,1.151-1.748,1.158-1.748L92.576,0,104.46,69.532l.325,1.881.317,1.881Z" transform="translate(75.743 0)"/>
      </g>
    </g>
  </g>
</svg>
