<svg xmlns="http://www.w3.org/2000/svg" width="421.703" height="48.287" viewBox="0 0 421.703 48.287">
  <g id="Group_43055" data-name="Group 43055" transform="translate(-326.5 -581.822)">
    <path id="Path_7231" data-name="Path 7231" d="M0,0H389.738" transform="translate(342.5 597.609)" fill="#a8a8a8" stroke="#a8a8a8" stroke-width="1"/>
    <circle id="Ellipse_262" data-name="Ellipse 262" cx="2.5" cy="2.5" r="2.5" transform="translate(437.364 595.109)" fill="#a8a8a8"/>
    <circle id="Ellipse_299" data-name="Ellipse 299" cx="2.5" cy="2.5" r="2.5" transform="translate(534.364 595.109)" fill="#a8a8a8"/>
    <circle id="Ellipse_263" data-name="Ellipse 263" cx="2.5" cy="2.5" r="2.5" transform="translate(340.365 595.109)" fill="#a8a8a8"/>
    <circle id="Ellipse_297" data-name="Ellipse 297" cx="2.5" cy="2.5" r="2.5" transform="translate(632.365 595.109)" fill="#a8a8a8"/>
    <circle id="Ellipse_294" data-name="Ellipse 294" cx="2.5" cy="2.5" r="2.5" transform="translate(729.365 595.109)" fill="#a8a8a8"/>
    <text id="DKAAR" transform="translate(342.5 617.109)" fill="#333" font-size="9" font-family="Lato-Bold, Lato" font-weight="700"><tspan x="-15.651" y="0">DKAAR</tspan></text>
    <text id="ZACPT" transform="translate(621.364 617.109)" fill="#333" font-size="9" font-family="Lato-Bold, Lato" font-weight="700"><tspan x="0" y="0">ZACPT</tspan></text>
    <text id="CNSHA" transform="translate(716.203 617.109)" fill="#333" font-size="9" font-family="Lato-Bold, Lato" font-weight="700"><tspan x="0" y="0">CNSHA</tspan></text>
    <text id="DKAAL" transform="translate(425.662 617.109)" fill="#333" font-size="9" font-family="Lato-Bold, Lato" font-weight="700"><tspan x="0" y="0">DKAAL</tspan></text>
    <text id="DEHAM" transform="translate(520.864 617.109)" fill="#333" font-size="9" font-family="Lato-Bold, Lato" font-weight="700"><tspan x="0" y="0">DEHAM</tspan></text>
    <text id="Aarhus" transform="translate(343.162 628.109)" fill="#aaabad" font-size="9" font-family="Lato-Bold, Lato" font-weight="700"><tspan x="-14.141" y="0">Aarhus</tspan></text>
    <text id="Cape_Town" data-name="Cape Town" transform="translate(613.365 628.109)" fill="#aaabad" font-size="9" font-family="Lato-Bold, Lato" font-weight="700"><tspan x="0" y="0">Cape Town</tspan></text>
    <text id="Shangai" transform="translate(716.203 628.109)" fill="#aaabad" font-size="9" font-family="Lato-Bold, Lato" font-weight="700"><tspan x="0" y="0">Shangai</tspan></text>
    <text id="Aalbough" transform="translate(423.365 628.109)" fill="#aaabad" font-size="9" font-family="Lato-Bold, Lato" font-weight="700"><tspan x="0" y="0">Aalbough</tspan></text>
    <text id="Hamburg" transform="translate(519.369 628.109)" fill="#aaabad" font-size="9" font-family="Lato-Bold, Lato" font-weight="700"><tspan x="0" y="0">Hamburg</tspan></text>
    <g id="truck" transform="translate(380.965 583.109)">
      <g id="Group_10382" data-name="Group 10382">
        <path id="Path_7232" data-name="Path 7232" d="M12.955,66.5H10.909V64H1.364A1.31,1.31,0,0,0,0,65.25v6.875H1.364A1.967,1.967,0,0,0,3.409,74a1.967,1.967,0,0,0,2.045-1.875H9.545A1.967,1.967,0,0,0,11.591,74a1.967,1.967,0,0,0,2.045-1.875H15V69ZM3.409,73.062a.941.941,0,1,1,0-1.875.941.941,0,1,1,0,1.875Zm8.182,0a.941.941,0,1,1,1.023-.937A.982.982,0,0,1,11.591,73.062ZM10.909,69V67.438h1.7L13.953,69Z" transform="translate(0 -64)" fill="#a8a8a8"/>
      </g>
    </g>
    <g id="_005-transportation" data-name="005-transportation" transform="translate(480.211 583.109)">
      <g id="Group_10384" data-name="Group 10384" transform="translate(5.202 3.89)">
        <g id="Group_10383" data-name="Group 10383" transform="translate(0 0)">
          <rect id="Rectangle_4783" data-name="Rectangle 4783" width="1.507" height="1.507" fill="#a8a8a8"/>
        </g>
      </g>
      <g id="Group_10386" data-name="Group 10386" transform="translate(7.521 3.89)">
        <g id="Group_10385" data-name="Group 10385" transform="translate(0 0)">
          <rect id="Rectangle_4784" data-name="Rectangle 4784" width="1.507" height="1.507" fill="#a8a8a8"/>
        </g>
      </g>
      <g id="Group_10388" data-name="Group 10388" transform="translate(5.202 1.4)">
        <g id="Group_10387" data-name="Group 10387" transform="translate(0 0)">
          <rect id="Rectangle_4785" data-name="Rectangle 4785" width="1.507" height="1.507" fill="#a8a8a8"/>
        </g>
      </g>
      <g id="Group_10390" data-name="Group 10390" transform="translate(7.521 1.4)">
        <g id="Group_10389" data-name="Group 10389" transform="translate(0 0)">
          <rect id="Rectangle_4786" data-name="Rectangle 4786" width="1.507" height="1.507" fill="#a8a8a8"/>
        </g>
      </g>
      <g id="Group_10392" data-name="Group 10392" transform="translate(9.841 3.892)">
        <g id="Group_10391" data-name="Group 10391" transform="translate(0 0)">
          <rect id="Rectangle_4787" data-name="Rectangle 4787" width="1.507" height="0.753" fill="#a8a8a8"/>
        </g>
      </g>
      <g id="Group_10394" data-name="Group 10394" transform="translate(0.422)">
        <g id="Group_10393" data-name="Group 10393" transform="translate(0 0)">
          <path id="Path_7233" data-name="Path 7233" d="M15.993,98.608v-.592h.759v-1h-.759v-.759h-1v.759h-.759v1h.759v.592H13.428v3.062h4.131V98.608Z" transform="translate(-13.428 -96.259)" fill="#a8a8a8"/>
        </g>
      </g>
      <g id="Group_10396" data-name="Group 10396" transform="translate(0 5.624)">
        <g id="Group_10395" data-name="Group 10395" transform="translate(0 0)">
          <path id="Path_7234" data-name="Path 7234" d="M14.023,276.364H9.895l-.223.754H0l1.073,3.622H13.7l1.3-4.376Zm-2.129,1.922h-.962v-1h.962Zm1.513,0h-.962v-1h.962Z" transform="translate(0 -276.364)" fill="#a8a8a8"/>
        </g>
      </g>
    </g>
    <g id="_005-transportation-2" data-name="005-transportation" transform="translate(680.211 583.109)">
      <g id="Group_10384-2" data-name="Group 10384" transform="translate(5.202 3.89)">
        <g id="Group_10383-2" data-name="Group 10383" transform="translate(0 0)">
          <rect id="Rectangle_4783-2" data-name="Rectangle 4783" width="1.507" height="1.507" fill="#a8a8a8"/>
        </g>
      </g>
      <g id="Group_10386-2" data-name="Group 10386" transform="translate(7.521 3.89)">
        <g id="Group_10385-2" data-name="Group 10385" transform="translate(0 0)">
          <rect id="Rectangle_4784-2" data-name="Rectangle 4784" width="1.507" height="1.507" fill="#a8a8a8"/>
        </g>
      </g>
      <g id="Group_10388-2" data-name="Group 10388" transform="translate(5.202 1.4)">
        <g id="Group_10387-2" data-name="Group 10387" transform="translate(0 0)">
          <rect id="Rectangle_4785-2" data-name="Rectangle 4785" width="1.507" height="1.507" fill="#a8a8a8"/>
        </g>
      </g>
      <g id="Group_10390-2" data-name="Group 10390" transform="translate(7.521 1.4)">
        <g id="Group_10389-2" data-name="Group 10389" transform="translate(0 0)">
          <rect id="Rectangle_4786-2" data-name="Rectangle 4786" width="1.507" height="1.507" fill="#a8a8a8"/>
        </g>
      </g>
      <g id="Group_10392-2" data-name="Group 10392" transform="translate(9.841 3.892)">
        <g id="Group_10391-2" data-name="Group 10391" transform="translate(0 0)">
          <rect id="Rectangle_4787-2" data-name="Rectangle 4787" width="1.507" height="0.753" fill="#a8a8a8"/>
        </g>
      </g>
      <g id="Group_10394-2" data-name="Group 10394" transform="translate(0.422)">
        <g id="Group_10393-2" data-name="Group 10393" transform="translate(0 0)">
          <path id="Path_7233-2" data-name="Path 7233" d="M15.993,98.608v-.592h.759v-1h-.759v-.759h-1v.759h-.759v1h.759v.592H13.428v3.062h4.131V98.608Z" transform="translate(-13.428 -96.259)" fill="#a8a8a8"/>
        </g>
      </g>
      <g id="Group_10396-2" data-name="Group 10396" transform="translate(0 5.624)">
        <g id="Group_10395-2" data-name="Group 10395" transform="translate(0 0)">
          <path id="Path_7234-2" data-name="Path 7234" d="M14.023,276.364H9.895l-.223.754H0l1.073,3.622H13.7l1.3-4.376Zm-2.129,1.922h-.962v-1h.962Zm1.513,0h-.962v-1h.962Z" transform="translate(0 -276.364)" fill="#a8a8a8"/>
        </g>
      </g>
    </g>
    <g id="_005-transportation-3" data-name="005-transportation" transform="translate(580.211 583.109)">
      <g id="Group_10384-3" data-name="Group 10384" transform="translate(5.202 3.89)">
        <g id="Group_10383-3" data-name="Group 10383" transform="translate(0 0)">
          <rect id="Rectangle_4783-3" data-name="Rectangle 4783" width="1.507" height="1.507" fill="#a8a8a8"/>
        </g>
      </g>
      <g id="Group_10386-3" data-name="Group 10386" transform="translate(7.521 3.89)">
        <g id="Group_10385-3" data-name="Group 10385" transform="translate(0 0)">
          <rect id="Rectangle_4784-3" data-name="Rectangle 4784" width="1.507" height="1.507" fill="#a8a8a8"/>
        </g>
      </g>
      <g id="Group_10388-3" data-name="Group 10388" transform="translate(5.202 1.4)">
        <g id="Group_10387-3" data-name="Group 10387" transform="translate(0 0)">
          <rect id="Rectangle_4785-3" data-name="Rectangle 4785" width="1.507" height="1.507" fill="#a8a8a8"/>
        </g>
      </g>
      <g id="Group_10390-3" data-name="Group 10390" transform="translate(7.521 1.4)">
        <g id="Group_10389-3" data-name="Group 10389" transform="translate(0 0)">
          <rect id="Rectangle_4786-3" data-name="Rectangle 4786" width="1.507" height="1.507" fill="#a8a8a8"/>
        </g>
      </g>
      <g id="Group_10392-3" data-name="Group 10392" transform="translate(9.841 3.892)">
        <g id="Group_10391-3" data-name="Group 10391" transform="translate(0 0)">
          <rect id="Rectangle_4787-3" data-name="Rectangle 4787" width="1.507" height="0.753" fill="#a8a8a8"/>
        </g>
      </g>
      <g id="Group_10394-3" data-name="Group 10394" transform="translate(0.422)">
        <g id="Group_10393-3" data-name="Group 10393" transform="translate(0 0)">
          <path id="Path_7233-3" data-name="Path 7233" d="M15.993,98.608v-.592h.759v-1h-.759v-.759h-1v.759h-.759v1h.759v.592H13.428v3.062h4.131V98.608Z" transform="translate(-13.428 -96.259)" fill="#a8a8a8"/>
        </g>
      </g>
      <g id="Group_10396-3" data-name="Group 10396" transform="translate(0 5.624)">
        <g id="Group_10395-3" data-name="Group 10395" transform="translate(0 0)">
          <path id="Path_7234-3" data-name="Path 7234" d="M14.023,276.364H9.895l-.223.754H0l1.073,3.622H13.7l1.3-4.376Zm-2.129,1.922h-.962v-1h.962Zm1.513,0h-.962v-1h.962Z" transform="translate(0 -276.364)" fill="#a8a8a8"/>
        </g>
      </g>
    </g>
    <path id="Icon_material-directions-railway" data-name="Icon material-directions-railway" d="M6,9.528a1.94,1.94,0,0,0,1.938,1.938l-.83.83v.277h6.644V12.3l-.83-.83a1.94,1.94,0,0,0,1.938-1.938V3.715c0-1.938-1.982-2.215-4.429-2.215S6,1.777,6,3.715Zm4.429.83a1.107,1.107,0,1,1,1.107-1.107A1.111,1.111,0,0,1,10.429,10.358Zm3.322-3.876H7.107V3.715h6.644Z" transform="translate(396.536 580.322)" fill="#a8a8a8"/>
  </g>
</svg>
